<svg id="Capa_1" enable-background="new 0 0 512 512" height="512" viewBox="0 0 512 512" width="512" xmlns="http://www.w3.org/2000/svg"><g><circle cx="466" cy="341" r="10"/><path d="m379 126c-55.378 0-99.443 40.768-121.322 65.875-29.53-32.357-69.66-65.875-124.678-65.875-71.29 0-133 57.628-133 130 0 72.425 61.761 130 133 130 55.336 0 99.372-40.701 121.24-65.77 29.494 32.308 69.609 65.77 124.76 65.77 18.419 0 36.375-3.768 53.367-11.199 5.06-2.213 7.368-8.108 5.155-13.169-2.212-5.06-8.109-7.369-13.169-5.155-14.45 6.319-29.709 9.523-45.353 9.523-49.342 0-85.263-30.599-117.454-67.65-18.007-20.771-39.061-48.82-40.339-49.801-26.764-33.19-53.773-62.549-88.207-62.549-39.57 0-73 32.056-73 70s33.43 70 73 70c32.206 0 60.121-26.664 81.937-53.241 8.634 10.901 16.982 21.498 26.026 32.25-18.981 22.306-58.975 60.991-107.963 60.991-61.252 0-113-50.374-113-110s51.748-110 113-110c49.431 0 85.399 30.967 117.376 67.763 13.638 15.72 26.389 32.411 38.833 47.877 27.292 33.916 54.696 64.36 89.791 64.36 39.57 0 73-32.056 73-70s-33.43-70-73-70c-32.216 0-60.161 26.71-82.003 53.327-8.644-10.897-16.989-21.481-26.04-32.231 18.991-22.341 59.015-61.096 108.043-61.096 61.252 0 113 50.374 113 110 0 15.178-3.217 29.918-9.561 43.812-2.294 5.023-.081 10.956 4.943 13.25 5.034 2.3 10.962.068 13.25-4.943 7.543-16.519 11.368-34.055 11.368-52.119 0-72.425-61.761-130-133-130zm-246 180c-28.234 0-53-23.364-53-50s24.766-50 53-50c24.419 0 46.735 23.35 69.145 50.794-19.327 24.113-43.787 49.206-69.145 49.206zm246-100c28.233 0 53 23.364 53 50s-24.767 50-53 50c-24.432 0-46.77-23.316-69.2-50.722 19.353-24.149 43.838-49.278 69.2-49.278z"/></g></svg>